<mxfile host="app.diagrams.net" modified="2021-08-27T10:53:58.844Z" agent="5.0 (Windows NT 10.0; Win64; x64) AppleWebKit/537.36 (KHTML, like Gecko) Chrome/92.0.4515.159 Safari/537.36" etag="Kal0Tz9FfSGs8sBUC_F0" version="15.0.2" type="github">
  <diagram id="6V8Hg_uAZFeybw74vvp0" name="Page-1">
    <mxGraphModel dx="1422" dy="762" grid="1" gridSize="10" guides="1" tooltips="1" connect="1" arrows="1" fold="1" page="1" pageScale="1" pageWidth="850" pageHeight="1100" math="0" shadow="0">
      <root>
        <mxCell id="0" />
        <mxCell id="1" parent="0" />
        <mxCell id="nB5kz3mRnRbZJAbKRwsi-1" value="微控制器" style="rounded=0;whiteSpace=wrap;html=1;fontStyle=1;fontSize=16;fontColor=#ffffff;strokeColor=#6D1F00;fillColor=#000000;" vertex="1" parent="1">
          <mxGeometry x="60" y="960" width="725" height="60" as="geometry" />
        </mxCell>
        <mxCell id="nB5kz3mRnRbZJAbKRwsi-3" value="" style="shape=corner;whiteSpace=wrap;html=1;dx=105;dy=100;fillColor=#e6d0de;strokeColor=#996185;gradientColor=#d5739d;" vertex="1" parent="1">
          <mxGeometry x="60" y="660" width="380" height="290" as="geometry" />
        </mxCell>
        <mxCell id="nB5kz3mRnRbZJAbKRwsi-4" value="Services Layer" style="text;html=1;strokeColor=none;fillColor=none;align=center;verticalAlign=middle;whiteSpace=wrap;rounded=0;fontSize=16;fontStyle=1" vertex="1" parent="1">
          <mxGeometry x="90" y="680" width="160" height="40" as="geometry" />
        </mxCell>
        <mxCell id="nB5kz3mRnRbZJAbKRwsi-5" value="MCAL" style="rounded=0;whiteSpace=wrap;html=1;fontSize=16;fontStyle=1;fillColor=#f8cecc;strokeColor=#b85450;gradientColor=#ea6b66;" vertex="1" parent="1">
          <mxGeometry x="180" y="890" width="470" height="60" as="geometry" />
        </mxCell>
        <mxCell id="nB5kz3mRnRbZJAbKRwsi-6" value="complex driver" style="rounded=0;whiteSpace=wrap;html=1;fontSize=16;gradientDirection=radial;fontStyle=1;fillColor=#d5e8d4;strokeColor=#82b366;gradientColor=#97d077;" vertex="1" parent="1">
          <mxGeometry x="665" y="660" width="120" height="290" as="geometry" />
        </mxCell>
        <mxCell id="nB5kz3mRnRbZJAbKRwsi-7" value="" style="shape=corner;whiteSpace=wrap;html=1;fontSize=16;rotation=-180;dx=200;dy=110;fillColor=#dae8fc;strokeColor=#6c8ebf;gradientColor=#7ea6e0;" vertex="1" parent="1">
          <mxGeometry x="180" y="660" width="470" height="220" as="geometry" />
        </mxCell>
        <mxCell id="nB5kz3mRnRbZJAbKRwsi-9" value="ECU Abstraction Layer" style="text;html=1;strokeColor=none;fillColor=none;align=center;verticalAlign=middle;whiteSpace=wrap;rounded=0;fontSize=16;fontColor=#000000;fontStyle=1" vertex="1" parent="1">
          <mxGeometry x="325" y="800" width="180" height="60" as="geometry" />
        </mxCell>
        <mxCell id="nB5kz3mRnRbZJAbKRwsi-10" value="Runtime Enviroment" style="rounded=0;whiteSpace=wrap;html=1;fontSize=16;gradientDirection=radial;fillColor=#ffcd28;strokeColor=#d79b00;gradientColor=#ffa500;" vertex="1" parent="1">
          <mxGeometry x="60" y="600" width="725" height="50" as="geometry" />
        </mxCell>
        <mxCell id="nB5kz3mRnRbZJAbKRwsi-11" value="" style="rounded=0;whiteSpace=wrap;html=1;fontSize=16;gradientDirection=radial;gradientColor=#b3b3b3;fillColor=#f5f5f5;strokeColor=#666666;" vertex="1" parent="1">
          <mxGeometry x="60" y="480" width="725" height="110" as="geometry" />
        </mxCell>
        <mxCell id="nB5kz3mRnRbZJAbKRwsi-12" value="SWC" style="whiteSpace=wrap;html=1;aspect=fixed;fontSize=16;fillColor=#fa6800;gradientDirection=radial;strokeColor=#C73500;fontColor=#000000;" vertex="1" parent="1">
          <mxGeometry x="80" y="495" width="80" height="80" as="geometry" />
        </mxCell>
        <mxCell id="nB5kz3mRnRbZJAbKRwsi-13" value="SWC" style="whiteSpace=wrap;html=1;aspect=fixed;fontSize=16;fontColor=#000000;fillColor=#fa6800;gradientDirection=radial;strokeColor=#C73500;" vertex="1" parent="1">
          <mxGeometry x="200" y="495" width="80" height="80" as="geometry" />
        </mxCell>
        <mxCell id="nB5kz3mRnRbZJAbKRwsi-14" value="SWC" style="whiteSpace=wrap;html=1;aspect=fixed;fontSize=16;fontColor=#000000;fillColor=#fa6800;gradientDirection=radial;strokeColor=#C73500;" vertex="1" parent="1">
          <mxGeometry x="320" y="495" width="80" height="80" as="geometry" />
        </mxCell>
        <mxCell id="nB5kz3mRnRbZJAbKRwsi-15" value="" style="ellipse;whiteSpace=wrap;html=1;aspect=fixed;fontSize=16;fontColor=#000000;fillColor=#fa6800;gradientDirection=radial;strokeColor=#C73500;" vertex="1" parent="1">
          <mxGeometry x="450" y="525" width="20" height="20" as="geometry" />
        </mxCell>
        <mxCell id="nB5kz3mRnRbZJAbKRwsi-16" value="" style="ellipse;whiteSpace=wrap;html=1;aspect=fixed;fontSize=16;fontColor=#000000;fillColor=#fa6800;gradientDirection=radial;strokeColor=#C73500;" vertex="1" parent="1">
          <mxGeometry x="485" y="525" width="20" height="20" as="geometry" />
        </mxCell>
        <mxCell id="nB5kz3mRnRbZJAbKRwsi-17" value="" style="ellipse;whiteSpace=wrap;html=1;aspect=fixed;fontSize=16;fontColor=#000000;fillColor=#fa6800;gradientDirection=radial;strokeColor=#C73500;" vertex="1" parent="1">
          <mxGeometry x="520" y="525" width="20" height="20" as="geometry" />
        </mxCell>
      </root>
    </mxGraphModel>
  </diagram>
</mxfile>
